<?xml version="1.0" standalone="no"?>
<!DOCTYPE svg PUBLIC "-//W3C//DTD SVG 20010904//EN"
 "http://www.w3.org/TR/2001/REC-SVG-20010904/DTD/svg10.dtd">
<svg version="1.0" xmlns="http://www.w3.org/2000/svg"
 width="1890.000000pt" height="1181.000000pt" viewBox="0 0 1890.000000 1181.000000"
 preserveAspectRatio="xMidYMid meet">

<g transform="translate(0.000000,1181.000000) scale(0.100000,-0.100000)"
fill="#000000" stroke="none">
<path d="M9605 11206 c-23 -14 -51 -43 -65 -68 l-25 -43 -5 -485 -5 -485 -47
-3 c-26 -2 -65 2 -87 8 l-40 11 -3 337 -3 337 -28 37 c-16 20 -48 46 -72 58
-41 20 -54 21 -517 18 l-474 -3 -36 -24 c-19 -13 -46 -40 -59 -59 -24 -35 -24
-38 -27 -321 -2 -202 -6 -287 -14 -292 -15 -10 -140 -10 -155 -1 -7 5 -12 65
-15 182 -3 170 -4 176 -30 216 -15 23 -44 52 -65 65 l-38 24 -481 0 -480 0
-43 -28 c-28 -19 -50 -44 -64 -75 -21 -44 -22 -65 -25 -323 l-3 -275 -87 -30
c-48 -16 -93 -30 -99 -32 -10 -3 -13 25 -13 116 0 107 -2 122 -23 153 -42 63
-88 66 -297 16 -399 -95 -784 -344 -1041 -672 -124 -158 -158 -212 -244 -384
-130 -262 -168 -396 -335 -1181 -21 -102 -41 -192 -45 -200 -3 -8 -25 -109
-50 -225 -45 -213 -92 -425 -185 -840 -29 -126 -69 -306 -90 -400 -21 -93 -59
-262 -85 -375 -25 -113 -68 -302 -95 -420 -27 -118 -60 -264 -74 -325 -83
-360 -72 -695 34 -983 68 -187 162 -333 312 -486 l107 -110 3 -592 c3 -584 3
-593 24 -621 18 -24 378 -239 569 -339 28 -15 75 -41 105 -59 30 -18 125 -72
210 -120 85 -48 200 -113 255 -145 55 -31 120 -68 145 -82 25 -14 151 -86 280
-159 l235 -134 585 -5 c581 -5 585 -5 588 -26 2 -16 -9 -26 -58 -48 -71 -33
-149 -107 -180 -171 -50 -104 -47 -265 7 -373 31 -62 109 -137 168 -162 94
-40 82 -40 2098 -40 2152 0 2016 -4 2141 63 127 67 203 179 213 313 14 177
-73 319 -228 375 -49 18 -59 26 -59 45 l0 24 588 0 587 0 85 48 c80 46 148 85
343 200 238 141 389 229 447 262 36 20 139 81 230 135 91 54 195 115 232 135
37 21 100 58 140 82 66 41 273 160 307 177 8 4 22 22 33 41 17 33 18 70 18
606 l0 570 108 110 c153 155 244 299 317 501 58 158 76 264 82 478 5 175 3
202 -21 340 -15 83 -31 164 -36 180 -6 17 -28 113 -49 215 -22 102 -61 275
-86 385 -76 330 -131 571 -169 740 -20 88 -49 214 -65 280 -16 66 -50 208 -75
315 -25 107 -71 301 -101 430 -30 129 -74 314 -96 410 -23 96 -59 247 -80 335
-21 88 -48 203 -59 255 -40 181 -89 347 -135 456 -191 447 -514 808 -905 1012
-63 33 -158 76 -211 96 -104 38 -376 98 -447 98 -90 0 -132 -61 -132 -189 0
-62 -3 -83 -13 -83 -16 0 -110 26 -149 42 l-28 10 0 365 c0 338 -1 366 -19
401 -24 47 -56 77 -103 97 -32 13 -104 15 -490 15 -419 0 -456 -2 -493 -19
-48 -22 -79 -54 -100 -103 -12 -31 -15 -87 -15 -318 l0 -281 -95 3 -95 3 -3
445 c-2 389 -5 449 -19 475 -21 39 -56 71 -91 84 -19 7 -191 11 -505 11 l-477
0 -40 -24z m-3911 -5673 c44 -76 159 -275 256 -443 97 -168 219 -378 270 -468
52 -89 98 -161 102 -160 5 2 165 273 357 603 l348 600 442 3 441 2 0 -1463 c0
-805 -2 -1466 -4 -1468 -2 -2 -200 -3 -440 -1 l-436 2 -2 605 -3 604 -134
-232 c-74 -128 -174 -299 -222 -382 -48 -82 -144 -249 -214 -370 -70 -121
-130 -222 -133 -225 -2 -3 -6 0 -8 5 -2 6 -64 114 -137 240 -73 127 -220 381
-327 565 -106 184 -202 351 -214 370 l-21 35 -3 -607 -2 -608 -378 0 c-208 0
-382 -3 -385 -6 -4 -4 109 -70 251 -147 301 -163 492 -270 475 -265 -7 1 -199
95 -427 208 l-415 205 0 1468 -1 1467 443 0 442 0 79 -137z m5464 -300 l-3
-438 -902 -3 -903 -2 0 -585 0 -585 463 2 462 3 0 115 0 115 -197 3 -198 2 0
345 0 345 638 -2 637 -3 0 -615 c0 -693 2 -671 -78 -824 -68 -131 -206 -261
-334 -314 -123 -52 -124 -52 -934 -52 -720 0 -759 1 -833 20 -212 54 -407 234
-476 439 -37 111 -41 245 -38 1091 4 793 4 806 26 884 29 105 80 193 160 278
105 111 188 161 327 198 66 18 129 19 1128 19 l1057 1 -2 -437z m1432 -588 l0
-1025 783 -2 782 -3 3 -437 2 -438 -411 -205 c-226 -114 -413 -204 -415 -202
-2 2 38 27 88 54 139 76 389 212 511 278 59 32 107 62 107 67 0 4 -523 8
-1162 8 l-1163 0 -3 1465 -2 1465 440 0 440 0 0 -1025z m-6190 -2556 c18 -44
36 -76 41 -72 4 4 21 40 38 78 l29 70 51 3 51 3 0 -211 0 -211 -47 3 -48 3 -5
75 -5 75 -29 -73 c-16 -40 -34 -71 -40 -69 -5 2 -22 31 -36 65 -14 34 -28 62
-32 62 -5 0 -8 -31 -8 -70 l0 -70 -50 0 -50 0 0 210 0 210 53 0 53 0 34 -81z
m378 -126 l-3 -208 -50 0 -50 0 -3 208 -2 207 55 0 55 0 -2 -207z m162 62 l0
-145 85 0 86 0 -3 -62 -3 -63 -137 -3 -138 -3 0 211 0 210 55 0 55 0 0 -145z
m320 -66 l0 -210 -47 3 -48 3 -3 208 -2 207 50 0 50 0 0 -211z m360 152 l0
-60 -46 -3 -46 -3 -1 -145 -2 -145 -50 0 -50 0 -3 148 -3 147 -49 0 -50 0 0
60 0 60 150 0 150 0 0 -59z m168 -148 l-3 -208 -50 0 -50 0 -3 208 -2 207 55
0 55 0 -2 -207z m277 185 c3 -13 9 -43 14 -68 46 -225 61 -306 61 -317 0 -9
-16 -13 -49 -13 -47 0 -50 2 -56 30 -6 28 -10 30 -50 30 -40 0 -44 -2 -47 -27
-3 -26 -7 -28 -55 -31 -29 -2 -53 -2 -53 0 0 15 62 342 71 376 l12 42 73 0
c68 0 74 -2 79 -22z m645 -38 l0 -59 -97 -3 -98 -3 -3 -82 -3 -83 51 0 c38 0
50 4 50 15 0 8 -9 15 -20 15 -17 0 -20 7 -20 50 l0 50 70 0 70 0 0 -99 c0 -91
-2 -102 -24 -128 -24 -27 -27 -28 -126 -28 -99 0 -102 1 -126 28 -23 27 -24
34 -24 173 0 146 10 194 42 207 7 3 68 6 136 6 l122 1 0 -60z m294 -12 c13
-57 65 -332 66 -346 0 -2 -24 -2 -52 0 -49 3 -53 5 -56 31 -3 25 -7 27 -47 27
-40 0 -44 -2 -50 -30 -6 -28 -9 -30 -56 -30 -34 0 -49 4 -49 13 0 26 60 336
76 395 2 8 27 12 77 12 l74 0 17 -72z m250 -10 l37 -83 30 65 c43 97 41 95 98
98 l51 3 0 -210 0 -211 -50 0 -50 0 0 70 c0 39 -3 70 -8 70 -4 0 -20 -29 -36
-65 -15 -36 -31 -65 -35 -65 -3 0 -19 31 -36 69 l-30 69 -5 -71 -5 -72 -50 0
-50 0 -3 208 -2 207 53 0 54 0 37 -82z m376 -129 l0 -210 -52 3 -53 3 -3 195
c-1 107 0 200 2 207 4 8 24 13 56 13 l50 0 0 -211z m320 201 c32 -17 40 -67
40 -242 l0 -169 -52 3 -53 3 -3 148 -3 148 -42 -3 -42 -3 -3 -148 -3 -148 -52
3 -52 3 -2 195 c-2 107 -1 201 2 208 5 15 236 17 265 2z m400 -50 l0 -60 -100
0 -100 0 0 -85 0 -85 45 0 c47 0 65 23 25 33 -16 4 -20 14 -20 51 l0 46 75 0
75 0 0 -85 c0 -100 -17 -151 -55 -165 -15 -6 -62 -10 -105 -10 -73 0 -82 2
-110 28 l-30 27 0 130 c-1 72 -1 142 -1 156 1 15 10 38 22 53 20 26 22 26 150
26 l129 0 0 -60z m382 -82 l3 -143 83 -3 82 -3 0 -64 0 -65 -135 0 -135 0 0
210 0 210 50 0 49 0 3 -142z m508 82 l0 -59 -87 -3 c-70 -2 -88 -6 -88 -18 0
-12 18 -16 88 -18 l87 -3 0 -49 0 -50 -91 0 c-68 0 -90 -3 -87 -12 3 -9 33
-14 91 -16 l87 -3 0 -64 0 -65 -140 0 -140 0 0 210 0 210 140 0 140 0 0 -60z
m315 -143 c22 -111 40 -204 40 -207 0 -3 -23 -6 -52 -8 -50 -3 -52 -2 -55 25
-3 26 -6 28 -48 28 -39 0 -45 -3 -50 -25 -5 -20 -13 -26 -44 -28 -21 -2 -44
-1 -50 1 -10 4 -4 55 25 209 21 111 39 204 39 206 0 1 35 2 78 2 l77 0 40
-203z m385 143 l0 -59 -97 -3 -98 -3 0 -80 0 -80 48 -3 c36 -2 47 0 47 12 0 8
-10 16 -22 18 -20 3 -23 10 -26 51 l-3 47 75 0 76 0 0 -99 c0 -91 -2 -102 -24
-128 -24 -27 -27 -28 -125 -28 -91 0 -103 2 -123 23 -22 21 -23 32 -26 175 -2
138 -1 155 18 185 l20 32 130 0 130 0 0 -60z m162 -82 l3 -143 45 0 45 0 3
143 3 142 49 0 50 0 0 -179 c0 -176 -1 -181 -24 -208 -24 -27 -27 -28 -126
-28 -99 0 -102 1 -126 28 -23 27 -24 32 -24 208 l0 179 50 0 49 0 3 -142z
m528 82 l0 -59 -82 -3 c-66 -2 -83 -6 -83 -18 0 -12 17 -16 83 -18 l82 -3 0
-49 0 -50 -86 0 c-64 0 -85 -3 -82 -12 3 -9 32 -14 86 -16 l82 -3 0 -64 0 -65
-135 0 -135 0 0 210 0 210 135 0 135 0 0 -60z"/>
<path d="M4787 5613 c-4 -3 -7 -640 -7 -1415 l0 -1408 390 0 390 0 2 617 3
616 30 10 c22 8 31 7 37 -4 5 -8 95 -162 200 -344 422 -731 483 -835 489 -835
4 0 69 107 145 238 75 130 158 273 184 317 26 44 118 203 205 353 86 150 161
275 166 277 4 3 20 3 34 -1 l25 -6 0 -619 0 -619 390 0 390 0 0 1415 0 1415
-401 -2 -401 -3 -60 -105 c-33 -58 -81 -141 -107 -185 -26 -44 -135 -231 -241
-415 -185 -321 -288 -498 -309 -530 -7 -12 -13 -13 -27 -4 -11 6 -82 121 -160
255 -161 278 -244 422 -404 699 -63 107 -125 216 -139 242 l-26 48 -396 0
c-218 0 -399 -3 -402 -7z"/>
<path d="M9029 5611 c-82 -16 -187 -63 -254 -114 -120 -90 -201 -207 -235
-340 -17 -70 -19 -128 -22 -953 l-3 -879 23 -75 c38 -119 79 -187 167 -275 92
-93 187 -146 300 -170 104 -22 1506 -22 1610 0 109 23 208 78 296 165 89 88
141 175 169 285 19 74 20 111 20 659 l0 581 -580 0 -580 0 0 -282 c0 -156 -1
-286 -2 -290 -2 -5 85 -10 192 -13 l195 -5 0 -165 0 -165 -511 -3 -511 -2 -8
619 c-4 340 -4 628 0 640 l6 21 900 -2 899 -3 0 388 0 387 -1017 -1 c-560 -1
-1034 -4 -1054 -8z"/>
<path d="M11760 4205 l0 -1415 1170 0 1170 0 0 390 0 390 -780 0 -780 0 -2
1023 -3 1022 -387 3 -388 2 0 -1415z"/>
<path d="M7976 1988 c-12 -45 -7 -68 13 -68 17 0 19 5 14 38 -7 47 -19 60 -27
30z"/>
<path d="M8908 2004 c-3 -5 -8 -26 -12 -46 -6 -34 -5 -38 14 -38 15 0 20 6 19
28 -1 34 -14 69 -21 56z"/>
<path d="M11430 2004 c0 -12 -3 -36 -6 -53 -6 -27 -4 -31 14 -31 18 0 20 4 15
38 -7 47 -22 77 -23 46z"/>
</g>
</svg>
